<?xml version="1.0" standalone="no"?>
<!DOCTYPE svg PUBLIC "-//W3C//DTD SVG 20010904//EN"
 "http://www.w3.org/TR/2001/REC-SVG-20010904/DTD/svg10.dtd">
<svg version="1.0" xmlns="http://www.w3.org/2000/svg"
 width="250.000000pt" height="300.000000pt" viewBox="0 0 750.000000 1000.000000"
 preserveAspectRatio="xMidYMid meet">

<text font-family="Tahoma" x="250" y="915" fill="red" font-size="5em">Empty cart!</text>
<g transform="translate(0.000000,1000.000000) scale(0.100000,-0.100000)"
fill="#000000" stroke="none">
<path d="M2810 6839 c-82 -22 -183 -55 -300 -97 -69 -25 -154 -55 -190 -68
-36 -12 -99 -36 -140 -53 -153 -65 -190 -99 -190 -180 0 -34 6 -44 37 -70 21
-17 53 -36 73 -42 19 -6 44 -14 55 -19 11 -5 43 -19 70 -30 86 -37 129 -61
157 -87 30 -28 50 -96 50 -170 0 -28 14 -90 34 -149 19 -55 54 -177 78 -270
24 -93 62 -234 85 -314 23 -80 46 -161 51 -180 5 -19 33 -111 63 -205 30 -93
73 -231 96 -305 23 -74 69 -218 101 -320 32 -102 66 -219 75 -260 26 -122 77
-239 124 -287 40 -40 40 -42 26 -70 -19 -35 -19 -123 -1 -167 20 -47 57 -72
136 -90 74 -16 119 -13 159 13 27 17 71 108 71 147 0 20 4 24 18 20 123 -38
394 -83 552 -91 69 -4 126 -8 128 -10 2 -2 -4 -17 -12 -34 -9 -16 -16 -53 -16
-80 0 -42 5 -56 30 -85 44 -50 86 -66 173 -66 73 0 75 1 121 41 61 54 78 88
75 152 l-3 52 70 -3 c38 -1 92 -8 119 -14 28 -7 102 -12 165 -12 105 0 122 3
205 33 207 76 295 179 295 347 0 171 -167 308 -417 343 -43 6 -94 15 -113 20
-127 33 -355 72 -450 77 -47 2 -142 9 -211 15 -69 6 -137 7 -151 4 -28 -7 -21
-19 -78 140 -12 33 -27 74 -34 90 -28 64 -36 86 -36 96 0 7 63 8 188 4 190 -6
516 6 652 25 151 21 411 127 493 200 87 78 101 134 118 470 5 107 16 249 25
314 21 155 16 366 -10 414 -19 37 -67 62 -119 62 -18 0 -53 6 -78 14 -24 8
-89 22 -144 31 -55 9 -203 36 -330 60 -126 24 -250 46 -275 49 -25 3 -115 15
-200 26 -434 57 -557 71 -658 73 l-84 2 -30 85 c-17 47 -36 108 -43 135 -19
72 -33 107 -58 134 -23 25 -156 91 -185 91 -9 0 -62 14 -117 30 -105 31 -221
39 -295 19z m325 -100 c207 -61 223 -72 250 -176 8 -32 27 -93 42 -135 14 -43
25 -80 22 -82 -2 -2 -22 -6 -44 -9 l-41 -7 -18 89 c-29 145 -84 216 -196 256
-139 49 -243 49 -400 1 -64 -19 -167 -57 -230 -84 -63 -27 -144 -59 -180 -71
-84 -27 -130 -56 -130 -80 0 -28 17 -38 125 -71 110 -34 156 -64 184 -118 28
-56 70 -194 85 -286 18 -104 50 -217 130 -463 35 -109 69 -225 76 -258 19 -98
109 -463 140 -565 15 -52 38 -133 50 -180 82 -315 174 -552 237 -612 32 -31
186 -90 313 -119 179 -42 359 -78 421 -84 35 -4 98 -13 140 -20 41 -8 143 -19
225 -25 82 -6 190 -17 239 -25 139 -23 325 -45 380 -45 120 0 277 67 338 142
42 53 49 129 16 187 -12 23 -33 48 -46 56 -29 19 -132 51 -193 60 -25 3 -94
17 -155 30 -60 13 -189 30 -285 39 -488 45 -618 56 -647 56 -36 0 -29 -16 -72
171 -12 53 -42 141 -67 195 -24 54 -44 100 -44 102 0 2 16 2 36 0 35 -3 36 -5
75 -98 21 -52 49 -124 60 -160 26 -78 54 -136 71 -146 7 -4 55 -8 108 -9 280
-3 477 -23 672 -66 48 -10 131 -26 184 -34 259 -42 388 -148 370 -303 -15
-129 -76 -189 -248 -247 -113 -38 -170 -43 -288 -25 -146 22 -359 40 -595 50
-395 17 -540 44 -975 182 -36 11 -75 29 -87 40 -28 26 -77 160 -109 298 -13
58 -47 173 -74 255 -27 83 -68 211 -91 285 -23 74 -62 196 -86 270 -46 141
-124 417 -198 700 -24 91 -59 213 -79 272 -23 67 -36 126 -36 158 0 28 -7 80
-16 116 -23 91 -73 134 -236 202 -210 88 -218 95 -174 135 50 46 638 261 796
290 48 9 155 -5 255 -34z m-54 -123 c84 -22 98 -29 135 -68 35 -37 43 -55 63
-137 12 -52 18 -97 14 -101 -12 -11 -167 -78 -248 -107 -38 -14 -74 -29 -80
-33 -5 -4 -30 -14 -55 -23 -25 -8 -88 -35 -140 -60 l-96 -44 -18 61 c-35 118
-76 212 -108 245 -34 34 -103 73 -152 85 -36 9 -30 14 47 42 34 12 92 35 128
52 36 16 113 44 170 62 57 17 115 35 129 40 45 15 116 10 211 -14z m379 -596
c11 -58 26 -127 34 -153 l15 -49 -77 7 c-42 3 -129 13 -192 21 -63 7 -155 19
-205 25 -122 15 -325 48 -336 55 -5 3 -9 13 -9 23 0 13 30 31 113 69 133 59
445 186 537 217 l65 22 18 -66 c9 -36 26 -113 37 -171z m310 199 c96 -10 191
-21 210 -24 19 -3 112 -16 205 -29 94 -14 204 -27 245 -31 41 -3 179 -21 305
-40 127 -18 287 -39 357 -46 103 -10 124 -15 110 -24 -32 -22 -236 -95 -377
-134 -146 -42 -310 -98 -431 -149 l-71 -30 -119 14 c-66 7 -180 20 -255 28
-75 9 -184 23 -242 32 l-106 16 -14 37 c-8 20 -29 97 -45 172 -17 75 -40 159
-50 186 l-19 51 61 -5 c33 -2 140 -13 236 -24z m1586 -234 c22 -33 21 -241 -1
-391 -9 -57 -20 -195 -25 -306 -15 -320 -26 -360 -123 -427 -92 -63 -306 -137
-456 -156 -63 -9 -115 -14 -117 -13 -6 7 -56 187 -84 303 -79 330 -115 467
-146 553 -19 51 -34 95 -34 96 0 14 340 134 525 185 134 37 313 107 380 149
28 17 53 31 57 31 4 1 15 -10 24 -24z m-2496 -169 c52 -8 138 -19 190 -26 52
-6 142 -18 200 -25 58 -8 141 -17 185 -20 44 -4 143 -17 220 -30 77 -13 192
-29 255 -35 63 -7 175 -20 248 -29 l133 -16 40 -120 c37 -111 56 -186 153
-585 19 -80 42 -165 51 -189 8 -24 14 -46 12 -47 -11 -11 -323 -22 -397 -14
-47 5 -283 14 -525 21 -449 11 -598 19 -610 31 -9 8 -97 367 -121 488 -9 47
-34 141 -56 210 -74 236 -118 383 -118 398 0 10 7 12 23 8 12 -3 65 -12 117
-20z m694 -1193 l158 -6 33 -71 c56 -120 65 -147 100 -285 19 -76 43 -147 55
-163 19 -26 20 -33 9 -65 -18 -55 -7 -138 22 -169 43 -46 74 -56 163 -52 67 3
87 8 115 28 48 36 84 103 84 156 0 34 4 44 16 44 79 -1 552 -48 560 -55 3 -4
1 -9 -5 -13 -5 -4 -20 -21 -32 -39 -42 -60 -23 -159 42 -207 24 -18 42 -21
131 -21 89 0 106 3 125 20 34 30 60 94 60 148 0 57 17 62 61 18 23 -24 29 -38
29 -74 0 -84 -74 -139 -228 -172 -74 -16 -96 -17 -200 -6 -64 7 -164 21 -222
31 -138 25 -168 29 -275 35 -98 7 -245 24 -256 31 -4 2 -60 11 -125 19 -66 9
-132 20 -149 25 -16 5 -86 21 -155 35 -134 28 -289 74 -357 106 -38 18 -45 28
-81 112 -22 51 -47 117 -57 147 -10 30 -26 80 -36 110 -19 56 -89 328 -89 344
0 9 64 7 504 -11z m560 -594 c30 -36 35 -93 9 -121 -23 -26 -104 -25 -128 2
-22 24 -22 77 0 120 13 26 21 30 54 30 31 0 44 -6 65 -31z m115 -26 l0 -48
-15 45 c-7 25 -14 46 -14 48 0 1 7 2 15 2 11 0 15 -12 14 -47z m772 -69 c101
-51 100 -167 -1 -174 -52 -4 -72 1 -95 25 -42 41 -30 119 25 162 19 16 13 17
71 -13z m133 -17 c13 -50 5 -60 -14 -18 -24 52 -24 52 -6 45 8 -3 17 -15 20
-27z m-1833 -258 c56 -19 79 -46 79 -96 0 -58 -25 -83 -83 -83 -58 0 -79 23
-85 95 -4 44 -1 60 13 75 21 23 30 24 76 9z m175 -90 c-8 -47 -42 -119 -56
-119 -6 0 -3 12 7 26 10 17 17 47 17 80 1 46 4 54 20 54 16 0 18 -5 12 -41z
m965 -121 c25 -34 37 -123 20 -147 -15 -23 -125 -27 -156 -7 -59 38 -66 86
-25 154 19 30 23 32 79 32 55 0 61 -2 82 -32z m103 10 c9 -33 7 -81 -3 -97 -7
-11 -11 -4 -17 25 -3 21 -13 51 -21 67 -13 26 -12 27 11 27 16 0 26 -7 30 -22z"/>
<path d="M5122 5624 c-28 -19 -29 -58 -2 -101 36 -59 100 -33 100 40 0 64 -50
95 -98 61z"/>
<path d="M4662 5484 c-26 -18 -28 -44 -6 -90 31 -65 104 -50 104 21 0 59 -56
99 -98 69z"/>
<path d="M4950 5236 c-25 -7 -65 -23 -90 -36 -53 -27 -157 -130 -185 -182 -18
-34 -18 -39 -4 -53 22 -22 38 -13 107 65 87 96 163 134 284 138 67 3 100 0
138 -14 48 -17 51 -17 67 -1 23 23 10 45 -43 72 -48 25 -205 31 -274 11z"/>
</g>
</svg>
